<?xml version="1.0" encoding="utf-8"?>
<!-- Generator: Adobe Illustrator 22.1.0, SVG Export Plug-In . SVG Version: 6.00 Build 0)  -->
<svg version="1.1" id="Layer_1" xmlns="http://www.w3.org/2000/svg" xmlns:xlink="http://www.w3.org/1999/xlink" x="0px" y="0px"
	 viewBox="0 0 1366 384" style="enable-background:new 0 0 1366 384;" xml:space="preserve">
<style type="text/css">
	.st0{fill-rule:evenodd;clip-rule:evenodd;}
	.st1{fill-rule:evenodd;clip-rule:evenodd;fill:#FFFFFF;}
	.st2{fill-rule:evenodd;clip-rule:evenodd;fill:#D0D2D3;}
	.st3{fill-rule:evenodd;clip-rule:evenodd;fill:#0074BB;}
</style>
<rect x="-28" y="-210" class="st0" width="1404" height="799"/>
<g>
	<path class="st1" d="M776.4,159.9v-64c0-1.8,0.5-3.1,1.6-4c1.1-0.9,2.5-1.3,4.2-1.3c2.1,0,3.9,0.4,5.2,1.2c1.4,0.8,2.7,2.4,4,4.7
		l15.4,26.4l15.6-26.4c1.3-2.3,2.6-3.9,4-4.7c1.3-0.8,3-1.2,5.2-1.2c1.7,0,3.1,0.4,4.2,1.3s1.7,2.2,1.7,4v64c0,1.1-0.6,1.9-1.7,2.5
		c-1.1,0.6-2.5,0.9-4.1,0.9c-1.5,0-2.9-0.3-4.1-0.9c-1.2-0.6-1.8-1.5-1.8-2.5v-47.8l-14.7,24.7c-1.1,1.6-2.5,2.4-4.3,2.4
		c-1.8,0-3.1-0.8-4-2.4l-14.7-25.3v48.4c0,1.1-0.6,1.9-1.7,2.5c-1.1,0.6-2.5,0.9-4.1,0.9c-1.5,0-2.9-0.3-4.1-0.9
		C777,161.8,776.4,160.9,776.4,159.9z"/>
	<path class="st1" d="M865.1,77.3c0-1.2,0.6-2.1,1.7-2.6l13.6-6.3c0.6-0.1,1-0.2,1.2-0.2c1,0,1.9,0.4,2.6,1.3
		c0.7,0.9,1.1,1.8,1.1,2.8c0,1.3-0.6,2.2-1.8,2.7l-13.3,6.1c-0.4,0.2-0.9,0.3-1.3,0.3c-1,0-1.9-0.4-2.7-1.3
		C865.5,79.2,865.1,78.3,865.1,77.3L865.1,77.3z M862,138.6h21.8l-11-34.1L862,138.6L862,138.6z M843.5,159c0-0.4,0-0.7,0.1-0.9
		l21.8-64.5c0.9-2.4,3.5-3.6,7.8-3.6c4.4,0,7,1.1,7.9,3.3l21.8,64.5c0.1,0.4,0.2,0.7,0.2,0.9c0,1.2-0.9,2.3-2.6,3.2
		c-1.7,0.9-3.5,1.4-5.4,1.4c-2.3,0-3.7-0.7-4.3-2.2l-4.6-14.3h-27l-4.5,14.2c-0.5,1.5-1.9,2.2-4.1,2.2c-1.8,0-3.4-0.4-4.9-1.3
		C844.3,161.2,843.5,160.2,843.5,159z"/>
	<path class="st1" d="M919.8,123.7H933c9.1,0,13.6-3.9,13.6-11.8c0-7.9-4.5-11.8-13.6-11.8h-13.2V123.7L919.8,123.7z M908.3,159.9
		V94c0-0.9,0.4-1.7,1.1-2.4c0.7-0.7,1.7-1,2.8-1H933c16.9,0,25.3,6.8,25.3,20.3c0,5.6-1.4,10-4.2,13.2c-2.8,3.2-6.6,5.3-11.3,6.4
		l15.4,26.2c0.3,0.5,0.4,1,0.4,1.5c0,1.3-0.8,2.6-2.3,3.7c-1.5,1.1-3.1,1.7-4.8,1.7c-1.9,0-3.4-1-4.6-3.1L930.9,132h-11.1v27.8
		c0,1.1-0.6,1.9-1.7,2.5c-1.1,0.6-2.5,1-4.1,1c-1.5,0-2.9-0.3-4-0.9C908.8,161.8,908.3,160.9,908.3,159.9z"/>
	<path class="st1" d="M977.9,141.8c0,7,3,11.1,9.1,12.2v-6.1c0-2.3,1.3-3.4,3.8-3.4c1.1,0,2,0.3,2.8,0.8c0.8,0.6,1.2,1.4,1.2,2.5v6
		c6.1-1.2,9.1-5.2,9.1-12.1v-29c0-4.3-1.1-7.5-3.4-9.7c-2.3-2.1-5.5-3.2-9.7-3.2c-8.6,0-13,4.3-13,12.8V141.8L977.9,141.8z
		 M966.2,141.8v-29c0-7.7,2.2-13.3,6.7-16.9c4.5-3.5,10.4-5.3,17.9-5.3c7.5,0,13.5,1.8,18,5.3c4.5,3.5,6.8,9.2,6.8,16.9v29
		c0,7-1.9,12.2-5.6,15.8c-3.7,3.6-8.8,5.6-15.2,6.2v7c0,1.1-0.4,1.9-1.2,2.5c-0.8,0.6-1.7,0.9-2.8,0.9c-1,0-1.9-0.3-2.7-0.9
		c-0.8-0.6-1.2-1.5-1.2-2.5v-7c-6.4-0.5-11.4-2.6-15.2-6.1C968.1,154.1,966.2,148.8,966.2,141.8z"/>
	<path class="st1" d="M1026.1,141.8V94c0-1.1,0.6-2,1.7-2.5c1.1-0.6,2.5-0.8,4.1-0.8c1.6,0,3,0.3,4.1,0.8c1.1,0.6,1.7,1.4,1.7,2.5
		v47.8c0,4.3,1.2,7.5,3.5,9.6c2.3,2.1,5.6,3.2,9.9,3.2c9,0,13.5-4.3,13.5-12.8V94c0-1.1,0.6-2,1.7-2.5c1.1-0.6,2.5-0.8,4.1-0.8
		c1.6,0,3,0.3,4.1,0.8c1.1,0.6,1.7,1.4,1.7,2.5v47.8c0,7.6-2.3,13.2-6.9,16.8c-4.6,3.6-10.7,5.4-18.3,5.4c-7.6,0-13.6-1.8-18.2-5.4
		C1028.4,155,1026.1,149.4,1026.1,141.8z"/>
	<path class="st1" d="M1087.8,159.9V94.1c0-1.1,0.5-1.9,1.5-2.5c1-0.6,2.2-0.9,3.6-0.9h39.1c1.2,0,2.2,0.5,2.9,1.4
		c0.7,0.9,1,2,1,3.2c0,1.3-0.3,2.5-1,3.4c-0.7,0.9-1.6,1.4-2.8,1.4h-32.7v22.8h16.9c1.2,0,2.1,0.4,2.8,1.2c0.7,0.8,1,1.8,1,3
		c0,1.1-0.3,2-1,2.8c-0.7,0.8-1.6,1.2-2.9,1.2h-16.9V154h32.7c1.2,0,2.1,0.5,2.8,1.4c0.7,0.9,1,2.1,1,3.4c0,1.2-0.3,2.3-1,3.2
		c-0.7,0.9-1.6,1.4-2.9,1.4H1093c-1.4,0-2.6-0.3-3.6-0.9C1088.3,161.8,1087.8,160.9,1087.8,159.9z"/>
	<path class="st1" d="M1137.3,160.3c0-1.3,0.4-2.5,1.2-3.7l34.1-56.6h-29.8c-1.2,0-2.1-0.4-2.8-1.3c-0.7-0.9-1-2-1-3.3
		c0-1.3,0.3-2.4,1-3.3c0.7-0.9,1.6-1.4,2.9-1.4h41c2.5,0,3.7,1,3.7,3c0,1.2-0.4,2.5-1.3,3.9l-34.1,56.5h33.3c1.2,0,2.1,0.5,2.8,1.4
		c0.7,1,1,2,1,3.2c0,1.2-0.4,2.3-1,3.2c-0.7,1-1.6,1.4-2.8,1.4h-44.5C1138.5,163.3,1137.3,162.3,1137.3,160.3z"/>
	<path class="st2" d="M783.7,241.3c0,3.8,1.4,6.9,4.3,9.4c2.9,2.5,6.9,3.8,12.1,3.8c6,0,10.7-2,13.9-5.9l-21.3-20.3
		C786.7,232.1,783.7,236.4,783.7,241.3L783.7,241.3z M772,242.2c0-4.5,1.3-8.5,4-12c2.7-3.5,6-6.2,10-8.1c-2.6-2.7-4.7-5.3-6-7.7
		c-1.4-2.5-2.1-5.2-2.1-8.3c0-5.4,2.1-9.6,6.3-12.7c4.2-3.1,9.4-4.7,15.6-4.7c5.9,0,10.7,1.2,14.5,3.6c3.8,2.4,5.7,4.8,5.7,7
		c0,1.3-0.6,2.4-1.7,3.4c-1.1,1-2.4,1.5-3.8,1.5c-1.1,0-2.2-0.6-3.4-1.8c-1.1-1.2-2.6-2.4-4.4-3.6c-1.8-1.2-4.1-1.8-6.8-1.8
		c-3.3,0-5.9,0.8-7.9,2.5c-2,1.7-3,4-3,7c0,1.5,0.3,2.9,0.9,4.3c0.6,1.4,1.6,2.9,2.9,4.6c1.4,1.6,2.4,2.8,3.3,3.6l3.9,3.9l19.5,18.9
		c1.5-3.2,2.5-8.3,2.9-15.1c0.1-1.2,0.6-2.1,1.3-2.6c0.7-0.6,2.1-0.8,4-0.8c1.9,0,3.2,0.4,3.9,1.2c0.7,0.8,1,2.1,1,3.9
		c0,7.2-1.9,13.9-5.8,20.2l9.3,9c0.5,0.5,0.8,1.2,0.8,1.9c0,1.1-0.5,2.1-1.6,3c-1.1,0.9-2.3,1.4-3.7,1.4c-1,0-2-0.4-3-1.3l-7.6-7.2
		c-5.9,5.8-13.3,8.7-22.3,8.7c-8,0-14.4-2.1-19.3-6.3C774.5,253.3,772,248.2,772,242.2z"/>
	<path class="st2" d="M874.9,238.1h21.8l-11-34.1L874.9,238.1L874.9,238.1z M856.4,258.5c0-0.4,0-0.7,0.1-0.9l21.8-64.5
		c0.9-2.4,3.5-3.6,7.8-3.6c4.4,0,7,1.1,7.9,3.3l21.8,64.5c0.1,0.4,0.2,0.7,0.2,0.9c0,1.2-0.9,2.3-2.6,3.2c-1.7,0.9-3.5,1.4-5.4,1.4
		c-2.3,0-3.7-0.7-4.3-2.2l-4.6-14.3h-27l-4.5,14.2c-0.5,1.5-1.9,2.2-4.1,2.2c-1.8,0-3.4-0.4-4.9-1.3
		C857.2,260.7,856.4,259.7,856.4,258.5z"/>
	<path class="st2" d="M917.1,251.9c0-1.3,0.5-2.5,1.5-3.8c1-1.3,2.2-1.9,3.5-1.9c0.8,0,1.8,0.4,2.9,1.3c1.1,0.8,2.3,1.8,3.4,2.8
		c1.1,1,2.8,1.9,5,2.8c2.2,0.8,4.7,1.3,7.5,1.3c4.2,0,7.5-0.9,10.1-2.7c2.5-1.8,3.8-4.4,3.8-7.9c0-3.2-1.2-5.9-3.7-8
		c-2.5-2.1-5.4-3.8-8.9-5.1c-3.5-1.3-7-2.6-10.5-4.1c-3.5-1.5-6.5-3.7-9-6.6c-2.5-2.9-3.7-6.6-3.7-11c0-3.5,0.7-6.6,2.2-9.1
		c1.5-2.6,3.5-4.6,6.1-6c2.6-1.4,5.3-2.4,8.1-3c2.8-0.6,5.8-0.9,9-0.9c2,0,4.1,0.1,6.2,0.3c2.2,0.2,4.3,0.6,6.4,1.1
		c2.1,0.5,3.9,1.3,5.3,2.3c1.4,1,2.1,2.1,2.1,3.3c0,1.2-0.4,2.5-1.3,3.8c-0.9,1.3-2.1,1.9-3.5,1.9c-0.7,0-1.7-0.3-3-1
		c-1.2-0.6-2.9-1.3-5-1.9c-2.1-0.6-4.5-0.9-7.2-0.9c-4.2,0-7.5,0.8-10,2.3c-2.5,1.5-3.7,3.8-3.7,6.8c0,2,0.7,3.7,2,5.2
		c1.3,1.4,3,2.6,5.1,3.5c2.1,0.9,4.4,1.8,7,2.7c2.6,0.9,5.1,2,7.6,3.2c2.5,1.2,4.8,2.6,6.9,4.2c2.1,1.6,3.8,3.7,5.1,6.5
		c1.3,2.7,2,5.9,2,9.5c0,6.9-2.3,12.1-6.9,15.7c-4.6,3.6-10.6,5.4-18.2,5.4c-6.7,0-12.5-1.3-17.2-3.8
		C919.4,257.3,917.1,254.6,917.1,251.9z"/>
	<path class="st2" d="M985.6,241.3c0,8.6,4.3,12.8,13,12.8c4.2,0,7.4-1.1,9.7-3.2c2.3-2.1,3.4-5.3,3.4-9.6v-29
		c0-4.3-1.1-7.5-3.4-9.7c-2.3-2.1-5.5-3.2-9.7-3.2c-8.6,0-13,4.3-13,12.8V241.3L985.6,241.3z M973.9,241.3v-29
		c0-7.6,2.2-13.2,6.7-16.8c4.5-3.6,10.4-5.4,17.9-5.4c7.5,0,13.5,1.8,18,5.4c4.5,3.6,6.8,9.2,6.8,16.8v29c0,7.6-2.3,13.2-6.8,16.8
		c-4.5,3.6-10.5,5.4-18,5.4c-7.5,0-13.5-1.8-17.9-5.4C976.2,254.5,973.9,248.9,973.9,241.3z"/>
	<path class="st2" d="M1033.4,241.3v-29c0-7.6,2.3-13.2,6.8-16.8c4.5-3.6,10.4-5.4,17.6-5.4c7.5,0,13.5,1.7,18.1,5
		c4.6,3.4,6.9,7.7,6.9,13c0,2.1-0.4,3.6-1.3,4.3c-0.9,0.8-2.4,1.1-4.5,1.1c-3.8,0-5.8-1.2-5.8-3.5c-0.4-7.1-4.7-10.6-12.9-10.6
		c-8.8,0-13.2,4.3-13.2,12.8v29c0,8.6,4.5,12.8,13.4,12.8c2.6,0,4.8-0.3,6.6-1c1.8-0.7,3-1.7,3.8-3c0.8-1.3,1.3-2.5,1.6-3.5
		c0.3-1,0.5-2.2,0.7-3.7c0.2-2.3,2.1-3.5,5.7-3.5c2.1,0,3.6,0.4,4.6,1.1c0.9,0.8,1.4,2.2,1.4,4.3c0,5.5-2.3,10-6.9,13.4
		c-4.6,3.5-10.7,5.2-18.1,5.2c-7.3,0-13.1-1.8-17.6-5.4C1035.6,254.5,1033.4,248.9,1033.4,241.3z"/>
	<path class="st2" d="M1090.9,259.4v-65.9c0-1.1,0.6-2,1.7-2.5c1.1-0.6,2.5-0.8,4.1-0.8c1.6,0,3,0.3,4.1,0.8
		c1.1,0.6,1.7,1.4,1.7,2.5v65.9c0,1.1-0.6,1.9-1.7,2.5c-1.1,0.6-2.5,0.9-4.1,0.9c-1.5,0-2.9-0.3-4.1-0.9
		C1091.5,261.3,1090.9,260.4,1090.9,259.4z"/>
	<path class="st2" d="M1127.1,238.1h21.8l-11-34.1L1127.1,238.1L1127.1,238.1z M1108.6,258.5c0-0.4,0-0.7,0.1-0.9l21.8-64.5
		c0.9-2.4,3.5-3.6,7.8-3.6c4.4,0,7,1.1,7.9,3.3l21.8,64.5c0.1,0.4,0.2,0.7,0.2,0.9c0,1.2-0.9,2.3-2.6,3.2c-1.7,0.9-3.5,1.4-5.4,1.4
		c-2.3,0-3.7-0.7-4.3-2.2l-4.6-14.3h-27l-4.5,14.2c-0.5,1.5-1.9,2.2-4.1,2.2c-1.8,0-3.4-0.4-4.9-1.3
		C1109.4,260.7,1108.6,259.7,1108.6,258.5z"/>
	<path class="st2" d="M1185,253.5h13c8.7,0,13.1-4.3,13.1-12.8v-28.4c0-8.6-4.4-12.8-13.1-12.8h-13V253.5L1185,253.5z M1173.4,259.5
		v-66c0-0.9,0.5-1.7,1.5-2.4c1-0.7,2.2-1,3.7-1h19.5c7.5,0,13.5,1.8,18,5.4c4.5,3.6,6.8,9.2,6.8,16.8v28.4c0,7.6-2.3,13.2-6.8,16.8
		c-4.5,3.6-10.5,5.4-18,5.4h-19.5c-1.5,0-2.7-0.3-3.7-1C1173.9,261.2,1173.4,260.4,1173.4,259.5z"/>
	<path class="st2" d="M1244.5,241.3c0,8.6,4.3,12.8,13,12.8c4.2,0,7.4-1.1,9.7-3.2c2.3-2.1,3.4-5.3,3.4-9.6v-29
		c0-4.3-1.1-7.5-3.4-9.7c-2.3-2.1-5.5-3.2-9.7-3.2c-8.7,0-13,4.3-13,12.8V241.3L1244.5,241.3z M1232.9,241.3v-29
		c0-7.6,2.2-13.2,6.7-16.8c4.5-3.6,10.4-5.4,17.9-5.4c7.5,0,13.5,1.8,18,5.4c4.5,3.6,6.8,9.2,6.8,16.8v29c0,7.6-2.3,13.2-6.8,16.8
		c-4.5,3.6-10.5,5.4-18,5.4c-7.5,0-13.5-1.8-17.9-5.4C1235.1,254.5,1232.9,248.9,1232.9,241.3z"/>
	<path class="st2" d="M1289,251.9c0-1.3,0.5-2.5,1.5-3.8c1-1.3,2.2-1.9,3.5-1.9c0.8,0,1.8,0.4,2.9,1.3c1.1,0.8,2.3,1.8,3.4,2.8
		c1.1,1,2.8,1.9,5,2.8c2.2,0.8,4.7,1.3,7.5,1.3c4.2,0,7.5-0.9,10.1-2.7c2.5-1.8,3.8-4.4,3.8-7.9c0-3.2-1.2-5.9-3.7-8
		c-2.5-2.1-5.4-3.8-8.9-5.1c-3.5-1.3-7-2.6-10.5-4.1c-3.5-1.5-6.5-3.7-9-6.6c-2.5-2.9-3.7-6.6-3.7-11c0-3.5,0.7-6.6,2.3-9.1
		c1.5-2.6,3.5-4.6,6.1-6c2.6-1.4,5.3-2.4,8.1-3c2.8-0.6,5.8-0.9,9-0.9c2,0,4.1,0.1,6.2,0.3c2.2,0.2,4.3,0.6,6.4,1.1
		c2.1,0.5,3.9,1.3,5.3,2.3c1.4,1,2.1,2.1,2.1,3.3c0,1.2-0.4,2.5-1.3,3.8c-0.9,1.3-2.1,1.9-3.5,1.9c-0.7,0-1.7-0.3-3-1
		c-1.2-0.6-2.9-1.3-5-1.9c-2.1-0.6-4.5-0.9-7.2-0.9c-4.2,0-7.5,0.8-10,2.3c-2.5,1.5-3.7,3.8-3.7,6.8c0,2,0.7,3.7,2,5.2
		c1.3,1.4,3,2.6,5.1,3.5c2.1,0.9,4.4,1.8,7,2.7c2.6,0.9,5.1,2,7.6,3.2c2.5,1.2,4.8,2.6,6.9,4.2c2.1,1.6,3.8,3.7,5.1,6.5
		c1.3,2.7,2,5.9,2,9.5c0,6.9-2.3,12.1-6.9,15.7c-4.6,3.6-10.6,5.4-18.2,5.4c-6.7,0-12.5-1.3-17.2-3.8
		C1291.4,257.3,1289,254.6,1289,251.9z"/>
	<path class="st1" d="M789.5,315.5c-0.1,2.8-0.9,4.9-2.4,6.4c-1.5,1.4-3.7,2.2-6.6,2.2c-2.9,0-5.1-0.9-6.7-2.6
		c-1.6-1.7-2.4-4.3-2.4-7.6v-7.5c0-3.3,0.8-5.8,2.4-7.6c1.6-1.8,3.8-2.7,6.7-2.7c2.9,0,5.1,0.7,6.6,2.1c1.5,1.4,2.3,3.6,2.4,6.5
		h-4.2c0-2-0.4-3.4-1.2-4.3c-0.7-0.9-2-1.4-3.7-1.4c-1.6,0-2.9,0.6-3.7,1.8c-0.8,1.2-1.3,3-1.3,5.4v7.6c0,2.4,0.4,4.3,1.2,5.5
		c0.8,1.2,2.1,1.8,3.7,1.8c1.7,0,2.9-0.4,3.6-1.3c0.8-0.9,1.2-2.3,1.2-4.3H789.5z"/>
	<path class="st1" d="M809.3,306.2c0-2.4-0.5-4.2-1.4-5.4c-0.9-1.2-2.3-1.8-4.2-1.8c-1.8,0-3.1,0.6-4,1.8c-0.9,1.2-1.4,3-1.4,5.4
		v7.5c0,2.4,0.5,4.3,1.4,5.5c0.9,1.2,2.2,1.8,4,1.8c1.8,0,3.2-0.6,4.2-1.8c0.9-1.2,1.4-3,1.4-5.5V306.2L809.3,306.2z M813.4,313.7
		c0,3.3-0.9,5.8-2.6,7.6c-1.7,1.8-4.1,2.7-7.1,2.7c-3,0-5.3-0.9-7-2.7c-1.7-1.8-2.5-4.3-2.5-7.6v-7.5c0-3.3,0.8-5.8,2.5-7.6
		c1.7-1.8,4-2.7,7-2.7c3,0,5.4,0.9,7.1,2.7c1.7,1.8,2.6,4.3,2.6,7.6V313.7z"/>
	<polygon class="st1" points="838.5,323.6 834.3,323.6 823.7,303.5 823.6,303.5 823.6,323.6 819.5,323.6 819.5,296.4 823.6,296.4 
		834.3,316.4 834.3,316.4 834.3,296.4 838.5,296.4 	"/>
	<path class="st1" d="M858,316.8c0-1.3-0.4-2.4-1.1-3.2c-0.7-0.8-2-1.5-3.9-2.2c-2.8-0.8-4.9-1.8-6.3-3.1c-1.4-1.2-2.2-2.9-2.2-5
		c0-2.2,0.8-4,2.4-5.3c1.6-1.4,3.7-2,6.3-2c2.7,0,4.8,0.8,6.5,2.4c1.6,1.6,2.4,3.5,2.4,5.9H858c0-1.6-0.4-2.9-1.2-3.9
		c-0.8-1-2-1.5-3.5-1.5c-1.5,0-2.6,0.4-3.4,1.2c-0.8,0.8-1.2,1.9-1.2,3.2c0,1.2,0.4,2.2,1.2,2.9c0.8,0.8,2.2,1.5,4.2,2.2
		c2.7,0.8,4.7,1.8,6,3.1c1.3,1.3,2,3,2,5.2c0,2.3-0.8,4.1-2.4,5.3c-1.6,1.3-3.7,1.9-6.4,1.9c-2.6,0-4.9-0.7-6.7-2.1
		c-1.9-1.4-2.8-3.5-2.8-6.2h4.1c0,1.9,0.5,3.3,1.5,4.2c1,0.9,2.3,1.3,4,1.3c1.5,0,2.7-0.4,3.4-1.2C857.6,319.2,858,318.1,858,316.8z
		"/>
	<polygon class="st1" points="884.4,299.3 877.1,299.3 877.1,323.6 872.9,323.6 872.9,299.3 865.7,299.3 865.7,296.4 884.4,296.4 	
		"/>
	<path class="st1" d="M893.3,309h4.6c1.6,0,2.8-0.4,3.5-1.2c0.7-0.8,1.1-2,1.1-3.5c0-1.6-0.3-2.8-1-3.7c-0.7-0.8-1.8-1.3-3.3-1.3
		h-4.9V309L893.3,309z M893.3,311.9v11.7h-4.1v-27.2h9.1c2.8,0,4.8,0.6,6.2,1.9c1.4,1.3,2.1,3.2,2.1,5.8c0,1.5-0.4,2.7-1.1,3.8
		c-0.7,1-1.8,1.9-3.2,2.5c1.5,0.5,2.5,1.2,3.1,2.3c0.6,1.1,0.9,2.4,0.9,4.1v2.4c0,0.8,0.1,1.6,0.3,2.3c0.2,0.7,0.5,1.2,0.9,1.7v0.5
		h-4.3c-0.5-0.4-0.7-1-0.9-1.9c-0.1-0.8-0.2-1.7-0.2-2.6v-2.3c0-1.6-0.3-2.8-1-3.6c-0.7-0.9-1.6-1.3-2.9-1.3H893.3z"/>
	<path class="st1" d="M930.7,296.4v18.9c0,2.9-0.8,5.1-2.5,6.5c-1.7,1.5-3.9,2.2-6.7,2.2c-2.8,0-5-0.7-6.6-2.2
		c-1.6-1.5-2.5-3.7-2.5-6.5v-18.9h4.1v18.9c0,2,0.4,3.5,1.3,4.4c0.9,1,2.1,1.4,3.7,1.4c1.6,0,2.9-0.5,3.8-1.4
		c0.9-0.9,1.3-2.4,1.3-4.5v-18.9H930.7z"/>
	<path class="st1" d="M954.2,315.5c-0.1,2.8-0.9,4.9-2.4,6.4c-1.5,1.4-3.7,2.2-6.6,2.2c-2.9,0-5.1-0.9-6.7-2.6
		c-1.6-1.7-2.4-4.3-2.4-7.6v-7.5c0-3.3,0.8-5.8,2.4-7.6c1.6-1.8,3.8-2.7,6.7-2.7c2.9,0,5.1,0.7,6.6,2.1c1.5,1.4,2.3,3.6,2.4,6.5H950
		c0-2-0.4-3.4-1.2-4.3c-0.8-0.9-2-1.4-3.7-1.4c-1.6,0-2.9,0.6-3.7,1.8c-0.8,1.2-1.3,3-1.3,5.4v7.6c0,2.4,0.4,4.3,1.2,5.5
		c0.8,1.2,2.1,1.8,3.7,1.8c1.7,0,2.9-0.4,3.6-1.3c0.8-0.9,1.2-2.3,1.2-4.3H954.2z"/>
	<polygon class="st1" points="976.2,299.3 968.9,299.3 968.9,323.6 964.8,323.6 964.8,299.3 957.5,299.3 957.5,296.4 976.2,296.4 	
		"/>
	<path class="st1" d="M995.6,306.2c0-2.4-0.5-4.2-1.4-5.4c-0.9-1.2-2.3-1.8-4.2-1.8c-1.8,0-3.1,0.6-4,1.8c-0.9,1.2-1.4,3-1.4,5.4
		v7.5c0,2.4,0.5,4.3,1.4,5.5c0.9,1.2,2.2,1.8,4,1.8c1.8,0,3.2-0.6,4.2-1.8c0.9-1.2,1.4-3,1.4-5.5V306.2L995.6,306.2z M999.7,313.7
		c0,3.3-0.9,5.8-2.6,7.6c-1.7,1.8-4.1,2.7-7.1,2.7c-3,0-5.3-0.9-7-2.7c-1.7-1.8-2.5-4.3-2.5-7.6v-7.5c0-3.3,0.8-5.8,2.5-7.6
		c1.7-1.8,4-2.7,7-2.7c3,0,5.4,0.9,7.1,2.7c1.7,1.8,2.6,4.3,2.6,7.6V313.7z"/>
	<path class="st1" d="M1010,309h4.6c1.6,0,2.8-0.4,3.5-1.2c0.7-0.8,1.1-2,1.1-3.5c0-1.6-0.3-2.8-1-3.7c-0.7-0.8-1.8-1.3-3.3-1.3
		h-4.9V309L1010,309z M1010,311.9v11.7h-4.2v-27.2h9.1c2.8,0,4.8,0.6,6.2,1.9c1.4,1.3,2.1,3.2,2.1,5.8c0,1.5-0.4,2.7-1.1,3.8
		c-0.7,1-1.8,1.9-3.2,2.5c1.5,0.5,2.5,1.2,3.1,2.3c0.6,1.1,0.9,2.4,0.9,4.1v2.4c0,0.8,0.1,1.6,0.3,2.3c0.2,0.7,0.5,1.2,0.9,1.7v0.5
		h-4.2c-0.5-0.4-0.7-1-0.9-1.9c-0.1-0.8-0.2-1.7-0.2-2.6v-2.3c0-1.6-0.3-2.8-1-3.6c-0.7-0.9-1.6-1.3-2.9-1.3H1010z"/>
	<path class="st1" d="M1034.5,313.7h7.3l-3.6-12.3h-0.1L1034.5,313.7L1034.5,313.7z M1042.6,316.6h-9l-2,7h-4.2l8.8-27.2h4l8.7,27.2
		h-4.2L1042.6,316.6z"/>
	<path class="st1" d="M1067.1,299.3v21.4h2.7c2.6,0,4.5-0.7,5.5-2c1.1-1.3,1.6-3.4,1.6-6.3v-4.9c0-2.9-0.5-5-1.6-6.3
		c-1.1-1.3-2.8-1.9-5.3-1.9H1067.1L1067.1,299.3z M1062.9,323.6v-27.2h7.2c3.6,0,6.3,0.9,8.2,2.8c1.9,1.8,2.8,4.7,2.8,8.4v4.9
		c0,3.8-0.9,6.6-2.8,8.4c-1.9,1.8-4.7,2.7-8.3,2.7H1062.9z"/>
	<polygon class="st1" points="1101.8,311 1091.3,311 1091.3,320.7 1103.5,320.7 1103.5,323.6 1087.1,323.6 1087.1,296.4 
		1103.3,296.4 1103.3,299.3 1091.3,299.3 1091.3,308.1 1101.8,308.1 	"/>
	<path class="st1" d="M1121.1,316.8c0-1.3-0.4-2.4-1.1-3.2c-0.7-0.8-2-1.5-3.9-2.2c-2.8-0.8-4.9-1.8-6.3-3.1c-1.4-1.2-2.2-2.9-2.2-5
		c0-2.2,0.8-4,2.4-5.3c1.6-1.4,3.7-2,6.3-2c2.7,0,4.9,0.8,6.5,2.4c1.6,1.6,2.4,3.5,2.4,5.9h-4.1c0-1.6-0.4-2.9-1.2-3.9
		c-0.8-1-2-1.5-3.5-1.5c-1.5,0-2.6,0.4-3.4,1.2c-0.8,0.8-1.1,1.9-1.1,3.2c0,1.2,0.4,2.2,1.2,2.9c0.8,0.8,2.2,1.5,4.2,2.2
		c2.7,0.8,4.7,1.8,6,3.1c1.3,1.3,2,3,2,5.2c0,2.3-0.8,4.1-2.4,5.3c-1.6,1.3-3.7,1.9-6.4,1.9c-2.6,0-4.9-0.7-6.7-2.1
		c-1.9-1.4-2.8-3.5-2.8-6.2h4.1c0,1.9,0.5,3.3,1.5,4.2c1,0.9,2.3,1.3,4,1.3c1.5,0,2.7-0.4,3.4-1.2
		C1120.7,319.2,1121.1,318.1,1121.1,316.8z"/>
	<path class="st1" d="M1135.5,313.7h7.3l-3.6-12.3h-0.1L1135.5,313.7L1135.5,313.7z M1143.6,316.6h-9l-2.1,7h-4.2l8.8-27.2h4
		l8.7,27.2h-4.2L1143.6,316.6z"/>
	<path class="st1" d="M1158.3,309h4.6c1.6,0,2.8-0.4,3.5-1.2c0.7-0.8,1.1-2,1.1-3.5c0-1.6-0.3-2.8-1-3.7c-0.7-0.8-1.8-1.3-3.3-1.3
		h-4.9V309L1158.3,309z M1158.3,311.9v11.7h-4.1v-27.2h9.1c2.8,0,4.8,0.6,6.2,1.9c1.4,1.3,2.1,3.2,2.1,5.8c0,1.5-0.4,2.7-1.1,3.8
		c-0.7,1-1.8,1.9-3.2,2.5c1.5,0.5,2.5,1.2,3.1,2.3c0.6,1.1,0.9,2.4,0.9,4.1v2.4c0,0.8,0.1,1.6,0.3,2.3c0.2,0.7,0.5,1.2,0.9,1.7v0.5
		h-4.2c-0.5-0.4-0.7-1-0.9-1.9c-0.1-0.8-0.2-1.7-0.2-2.6v-2.3c0-1.6-0.3-2.8-1-3.6c-0.7-0.9-1.6-1.3-2.9-1.3H1158.3z"/>
	<path class="st1" d="M1182,309h4.6c1.6,0,2.8-0.4,3.5-1.2c0.7-0.8,1.1-2,1.1-3.5c0-1.6-0.3-2.8-1-3.7c-0.7-0.8-1.8-1.3-3.3-1.3
		h-4.9V309L1182,309z M1182,311.9v11.7h-4.1v-27.2h9.1c2.8,0,4.8,0.6,6.2,1.9c1.4,1.3,2.1,3.2,2.1,5.8c0,1.5-0.4,2.7-1.1,3.8
		c-0.7,1-1.8,1.9-3.2,2.5c1.5,0.5,2.5,1.2,3.1,2.3c0.6,1.1,0.9,2.4,0.9,4.1v2.4c0,0.8,0.1,1.6,0.3,2.3c0.2,0.7,0.5,1.2,0.9,1.7v0.5
		h-4.3c-0.5-0.4-0.7-1-0.9-1.9c-0.1-0.8-0.2-1.7-0.2-2.6v-2.3c0-1.6-0.3-2.8-1-3.6c-0.7-0.9-1.6-1.3-2.9-1.3H1182z"/>
	<path class="st1" d="M1216.2,306.2c0-2.4-0.5-4.2-1.4-5.4c-1-1.2-2.3-1.8-4.2-1.8c-1.8,0-3.1,0.6-4,1.8c-0.9,1.2-1.4,3-1.4,5.4v7.5
		c0,2.4,0.4,4.3,1.4,5.5c0.9,1.2,2.2,1.8,4,1.8c1.8,0,3.2-0.6,4.2-1.8c0.9-1.2,1.4-3,1.4-5.5V306.2L1216.2,306.2z M1220.4,313.7
		c0,3.3-0.9,5.8-2.6,7.6c-1.7,1.8-4.1,2.7-7.1,2.7c-3,0-5.3-0.9-7-2.7c-1.7-1.8-2.5-4.3-2.5-7.6v-7.5c0-3.3,0.8-5.8,2.5-7.6
		c1.7-1.8,4-2.7,7-2.7c3,0,5.4,0.9,7.1,2.7c1.7,1.8,2.6,4.3,2.6,7.6V313.7z"/>
	<polygon class="st1" points="1230.6,320.7 1241.6,320.7 1241.6,323.6 1226.4,323.6 1226.4,296.4 1230.6,296.4 	"/>
	<polygon class="st1" points="1250.6,320.7 1261.7,320.7 1261.7,323.6 1246.5,323.6 1246.5,296.4 1250.6,296.4 	"/>
	<rect x="1266.7" y="296.4" class="st1" width="4.1" height="27.2"/>
	<path class="st1" d="M1290.6,316.8c0-1.3-0.4-2.4-1.1-3.2c-0.7-0.8-2-1.5-3.9-2.2c-2.8-0.8-4.9-1.8-6.3-3.1c-1.4-1.2-2.1-2.9-2.1-5
		c0-2.2,0.8-4,2.4-5.3c1.6-1.4,3.7-2,6.3-2c2.7,0,4.8,0.8,6.5,2.4c1.6,1.6,2.4,3.5,2.4,5.9h-4.2c0-1.6-0.4-2.9-1.2-3.9
		c-0.8-1-2-1.5-3.5-1.5c-1.5,0-2.6,0.4-3.4,1.2c-0.8,0.8-1.2,1.9-1.2,3.2c0,1.2,0.4,2.2,1.2,2.9c0.8,0.8,2.2,1.5,4.2,2.2
		c2.7,0.8,4.7,1.8,6,3.1c1.3,1.3,2,3,2,5.2c0,2.3-0.8,4.1-2.4,5.3c-1.6,1.3-3.7,1.9-6.4,1.9c-2.6,0-4.9-0.7-6.7-2.1
		c-1.9-1.4-2.8-3.5-2.8-6.2h4.2c0,1.9,0.5,3.3,1.5,4.2c1,0.9,2.3,1.3,4,1.3c1.5,0,2.7-0.4,3.5-1.2
		C1290.2,319.2,1290.6,318.1,1290.6,316.8z"/>
	<polygon class="st1" points="1317,299.3 1309.7,299.3 1309.7,323.6 1305.5,323.6 1305.5,299.3 1298.3,299.3 1298.3,296.4 
		1317,296.4 	"/>
	<path class="st1" d="M1326.7,313.7h7.3l-3.6-12.3h-0.1L1326.7,313.7L1326.7,313.7z M1334.8,316.6h-9l-2,7h-4.2l8.8-27.2h4l8.7,27.2
		h-4.2L1334.8,316.6z"/>
	<polygon class="st3" points="131.9,229.6 117.4,255.2 47,255.2 105.7,161.3 176.1,161.3 212.9,191.9 182.6,266.1 294.1,90.2 
		435,90.2 716.6,324.9 435,324.9 307.2,112 350.7,219.1 317.6,277.9 176.1,278.6 113.9,174.9 	"/>
</g>
</svg>
